<?xml version="1.0" encoding="UTF-8" standalone="no"?><!DOCTYPE svg PUBLIC "-//W3C//DTD SVG 1.1//EN" "http://www.w3.org/Graphics/SVG/1.1/DTD/svg11.dtd"><svg width="100%" height="100%" viewBox="0 0 1109 1575" version="1.1" xmlns="http://www.w3.org/2000/svg" xmlns:xlink="http://www.w3.org/1999/xlink" xml:space="preserve" xmlns:serif="http://www.serif.com/" style="fill-rule:evenodd;clip-rule:evenodd;stroke-linejoin:round;stroke-miterlimit:2;"><g><path d="M473.936,890.886l-0,-206.751c64.131,0 116.296,-47.637 116.296,-106.203l0,-261.196c0,-172.559 153.714,-312.933 342.672,-312.933l83.46,-0l-0,206.751l-83.46,-0c-64.107,-0 -116.273,47.637 -116.273,106.182l0,261.196c0,172.559 -153.737,312.954 -342.695,312.954Z" style="fill:#50a8d7;fill-rule:nonzero;"/><path d="M1016.36,1571.2l-83.46,0c-188.958,0 -342.672,-140.373 -342.672,-312.933l0,-261.196c0,-58.566 -52.165,-106.182 -116.296,-106.182l-0,-206.751c188.958,0 342.695,140.374 342.695,312.933l0,261.196c0,58.545 52.166,106.182 116.273,106.182l83.46,0l-0,206.751Z" style="fill:#50a8d7;fill-rule:nonzero;"/><path d="M246.088,826.174c23.324,21.3 61.326,21.3 84.651,-0l42.326,-38.674l-42.326,-38.652c-23.325,-21.322 -61.303,-21.322 -84.651,-0c-23.349,21.3 -23.349,56.004 -0,77.326Zm42.325,222.629c-73.316,0 -146.609,-25.483 -202.42,-76.451c-111.622,-101.913 -111.622,-267.77 0,-369.704c111.599,-101.914 293.218,-101.935 404.84,-0l202.421,184.852l-202.421,184.852c-55.811,50.946 -129.127,76.451 -202.42,76.451Z" style="fill:#50a8d7;fill-rule:nonzero;"/></g></svg>