<?xml version="1.0" encoding="UTF-8" standalone="no"?><!DOCTYPE svg PUBLIC "-//W3C//DTD SVG 1.1//EN" "http://www.w3.org/Graphics/SVG/1.1/DTD/svg11.dtd"><svg width="100%" height="100%" viewBox="0 0 1109 1575" version="1.1" xmlns="http://www.w3.org/2000/svg" xmlns:xlink="http://www.w3.org/1999/xlink" xml:space="preserve" xmlns:serif="http://www.serif.com/" style="fill-rule:evenodd;clip-rule:evenodd;stroke-linejoin:round;stroke-miterlimit:2;"><g><path d="M634.392,684.135l-0,206.751c-64.131,0 -116.297,47.616 -116.297,106.182l0,261.196c0,172.56 -153.714,312.933 -342.672,312.933l-83.459,0l-0,-206.751l83.459,0c64.108,0 116.273,-47.637 116.273,-106.182l0,-261.196c0,-172.559 153.738,-312.933 342.696,-312.933Z" style="fill:#ffd000;fill-rule:nonzero;"/><path d="M91.964,3.803l83.459,-0c188.958,-0 342.672,140.374 342.672,312.933l0,261.196c0,58.544 52.166,106.203 116.297,106.203l-0,206.751c-188.958,0 -342.696,-140.395 -342.696,-312.954l0,-261.196c0,-58.545 -52.165,-106.182 -116.273,-106.182l-83.459,-0l-0,-206.751Z" style="fill:#ffd000;fill-rule:nonzero;"/><path d="M862.263,748.848c-23.348,-21.322 -61.326,-21.322 -84.674,-0l-42.326,38.652l42.326,38.674c23.324,21.3 61.326,21.3 84.674,-0c23.325,-21.322 23.325,-56.026 0,-77.348l0,0.022Zm-42.325,-222.651c73.316,-0 146.609,25.483 202.42,76.451c111.598,101.934 111.598,267.791 -0,369.704c-111.622,101.914 -293.219,101.914 -404.841,0l-202.42,-184.852l202.42,-184.852c55.788,-50.946 129.128,-76.451 202.421,-76.451Z" style="fill:#ffd000;fill-rule:nonzero;"/></g></svg>